<?xml version="1.0" standalone="no"?>
<!DOCTYPE svg PUBLIC "-//W3C//DTD SVG 20010904//EN"
 "http://www.w3.org/TR/2001/REC-SVG-20010904/DTD/svg10.dtd">
<svg version="1.0" xmlns="http://www.w3.org/2000/svg"
 width="700.000000pt" height="700.000000pt" viewBox="0 0 700.000000 700.000000"
 preserveAspectRatio="xMidYMid meet">
<metadata>
Created by potrace 1.14, written by Peter Selinger 2001-2017
</metadata>
<g transform="translate(0.000000,700.000000) scale(0.100000,-0.100000)"
fill="#000000" stroke="none">
<path d="M6147 6993 c-1 0 -51 -4 -112 -8 -60 -3 -130 -8 -155 -10 -25 -2 -85
-6 -135 -10 -49 -3 -117 -8 -150 -10 -33 -3 -98 -7 -145 -10 -79 -5 -110 -7
-272 -20 -35 -2 -103 -7 -153 -10 -49 -3 -115 -7 -145 -10 -79 -6 -282 -20
-435 -30 -49 -3 -108 -8 -130 -10 -22 -2 -89 -7 -150 -11 -60 -4 -126 -8 -145
-9 -19 -2 -42 -3 -51 -4 -12 -1 -21 -26 -37 -103 -12 -57 -30 -148 -42 -203
-12 -55 -37 -176 -57 -270 -19 -93 -36 -177 -38 -185 -5 -24 -57 -273 -61
-294 -4 -22 -44 -212 -49 -236 -2 -8 -8 -35 -14 -60 -5 -25 -13 -61 -16 -80
-3 -19 -8 -42 -10 -50 -2 -8 -7 -28 -9 -45 -3 -16 -19 -95 -36 -175 -17 -80
-33 -156 -35 -170 -17 -87 -53 -251 -57 -255 -2 -2 -39 -7 -83 -10 -79 -6
-113 -8 -274 -20 -46 -4 -81 -3 -78 2 3 4 8 25 11 45 3 21 10 57 15 80 6 24
13 59 16 78 3 19 13 66 21 103 15 65 13 104 -4 93 -4 -2 -50 -7 -102 -11 -52
-3 -115 -8 -140 -10 -25 -2 -88 -6 -140 -10 -52 -3 -120 -7 -150 -10 -144 -11
-221 -16 -290 -20 -41 -3 -100 -7 -130 -10 -30 -2 -95 -7 -145 -10 -164 -10
-239 -15 -296 -21 -66 -6 -64 -18 -29 141 35 162 48 228 56 271 3 16 18 90 34
164 30 140 37 174 46 225 10 52 3 50 164 59 63 4 133 9 155 11 22 3 81 7 130
10 50 3 122 7 161 11 l71 5 -12 -48 c-7 -26 -15 -67 -19 -91 -3 -24 -7 -46
-10 -50 -2 -4 -7 -23 -10 -42 -7 -48 -21 -118 -46 -229 -11 -52 -20 -97 -20
-99 0 -5 252 9 405 23 105 9 300 22 361 24 l41 1 22 100 c12 55 24 112 27 127
3 15 12 59 20 98 9 38 17 79 20 90 10 51 56 272 60 290 2 11 11 52 19 90 7 39
30 147 50 240 20 94 38 181 41 195 6 32 24 120 30 142 5 18 2 18 -201 3 -44
-3 -109 -8 -145 -10 -36 -2 -101 -7 -145 -10 -44 -4 -105 -8 -135 -10 -52 -3
-179 -13 -280 -20 -25 -2 -92 -6 -150 -10 -58 -4 -121 -8 -140 -10 -19 -2 -80
-6 -135 -10 -55 -3 -120 -8 -145 -10 -25 -2 -88 -6 -140 -9 -52 -4 -124 -9
-160 -11 -36 -3 -99 -7 -140 -10 -41 -3 -100 -7 -130 -10 -30 -2 -95 -7 -145
-10 -49 -4 -91 -8 -93 -10 -4 -4 -18 -62 -26 -110 -5 -26 -108 -527 -122 -590
-2 -11 -7 -33 -10 -50 -3 -16 -10 -50 -15 -75 -6 -25 -12 -54 -15 -65 -2 -11
-13 -65 -24 -120 -23 -113 -21 -105 -50 -240 -12 -55 -24 -111 -26 -125 -7
-37 -30 -149 -60 -290 -14 -69 -28 -136 -30 -150 -3 -14 -14 -67 -25 -119 -12
-51 -22 -101 -24 -110 -2 -9 -18 -86 -35 -171 -18 -85 -34 -166 -36 -180 -3
-14 -9 -40 -14 -57 -10 -38 -6 -42 35 -38 17 2 71 6 120 10 101 6 180 11 305
20 47 4 108 8 135 10 28 2 93 7 145 10 52 4 120 8 150 10 74 5 212 14 280 20
30 2 98 7 150 10 52 3 107 8 122 11 30 5 29 11 8 -91 -6 -27 -12 -59 -14 -70
-34 -162 -46 -219 -55 -256 -14 -56 -151 -703 -151 -710 0 -3 -8 -5 -17 -5
-27 -1 -242 -15 -293 -19 -25 -2 -85 -6 -135 -10 -49 -3 -118 -8 -153 -11 -34
-2 -62 -1 -62 2 0 3 25 123 55 267 31 144 57 271 59 282 2 11 9 40 15 65 17
74 16 78 -26 74 -38 -3 -128 -10 -278 -19 -44 -3 -100 -7 -125 -10 -25 -2 -85
-7 -135 -10 -159 -10 -229 -16 -233 -20 -4 -3 -55 -235 -68 -305 -3 -14 -25
-118 -49 -231 -24 -113 -46 -217 -49 -230 -9 -44 -25 -124 -30 -144 -4 -17
-72 -340 -81 -385 -2 -8 -13 -60 -24 -114 -12 -55 -21 -100 -21 -102 0 -1 21
-1 48 1 26 2 92 6 147 9 55 4 116 9 135 11 19 2 85 7 145 10 61 3 130 8 155
10 25 2 92 7 150 10 58 4 123 9 145 11 22 1 81 5 130 9 50 3 119 7 155 10 89
7 189 14 290 20 47 3 105 8 130 10 25 2 90 7 145 10 55 4 116 8 135 10 19 2
87 6 150 10 63 4 126 8 140 8 14 1 24 -3 23 -10 -1 -6 -5 -24 -8 -40 -2 -15
-21 -104 -41 -198 -19 -93 -38 -181 -40 -195 -3 -14 -21 -99 -40 -190 -19 -91
-44 -210 -55 -265 -23 -112 -26 -129 -34 -165 -3 -14 -7 -34 -9 -45 -3 -11
-12 -53 -20 -92 -9 -40 -18 -86 -21 -103 -3 -16 -12 -58 -20 -92 -8 -35 -16
-75 -19 -89 -2 -14 -23 -116 -46 -225 -23 -109 -44 -210 -47 -224 -2 -14 -11
-54 -19 -90 -8 -36 -17 -81 -20 -100 -3 -19 -12 -60 -20 -91 -23 -92 -23 -91
43 -85 32 3 103 8 158 12 55 3 118 7 140 9 22 2 87 6 145 10 58 3 121 8 140
10 19 2 61 5 92 6 43 1 59 6 63 18 4 15 56 253 75 351 5 25 12 56 15 70 3 14
8 39 10 55 3 17 8 37 10 45 2 8 6 26 9 40 8 40 66 317 122 585 14 66 29 140
34 165 5 25 11 54 14 65 3 11 16 74 29 140 14 66 37 176 51 245 15 69 29 141
32 160 3 19 8 38 10 41 2 3 5 19 8 35 12 67 66 323 71 336 3 8 18 15 33 15 15
0 74 4 132 8 58 4 125 8 150 10 25 1 86 6 135 10 87 7 90 7 74 -11 -9 -11 -27
-32 -40 -48 -13 -16 -37 -43 -53 -60 -47 -50 -56 -69 -71 -147 -8 -41 -16 -83
-19 -94 -28 -130 -76 -369 -76 -376 0 -6 22 -8 53 -5 46 5 151 12 287 21 145
9 261 17 300 20 25 2 88 7 140 10 52 3 115 8 140 10 25 3 91 7 146 10 56 3
119 7 140 10 22 2 87 6 145 10 59 3 116 7 127 10 12 2 24 1 26 -3 4 -6 -3 -49
-18 -117 -5 -23 -64 -311 -70 -340 -2 -11 -12 -56 -21 -100 -9 -44 -19 -89
-21 -101 -2 -11 -18 -85 -34 -165 -17 -79 -55 -261 -85 -404 -29 -143 -58
-280 -64 -305 -19 -81 -19 -82 47 -76 31 3 98 8 147 11 108 7 210 14 285 20
30 2 102 7 160 11 102 6 140 10 145 16 2 2 5 19 8 38 3 19 15 80 27 135 12 55
24 111 26 125 3 14 23 111 45 215 59 281 150 716 155 745 15 81 72 341 75 344
2 3 40 7 84 10 44 4 109 9 145 11 36 3 94 7 130 9 36 3 112 7 170 11 58 4 106
8 108 10 4 4 26 96 51 220 12 55 34 165 51 245 17 80 33 158 35 173 3 15 12
56 20 90 17 70 18 90 8 84 -5 -3 -55 -8 -113 -12 -58 -4 -125 -8 -150 -10 -25
-2 -92 -6 -150 -10 -58 -3 -131 -8 -162 -11 -32 -2 -58 -1 -58 4 0 4 9 48 19
97 11 50 22 101 24 115 3 14 13 61 22 105 9 44 18 89 21 100 2 11 13 63 24
115 35 163 81 384 86 410 3 14 14 68 25 120 46 219 78 377 83 400 2 14 20 99
40 190 42 197 109 523 119 574 1 7 -17 11 -53 10 -64 -1 -285 -15 -315 -19
-11 -2 -67 -6 -125 -10 -103 -5 -106 -6 -135 -38 -27 -30 -111 -127 -143 -166
-12 -14 -12 -14 -8 4 3 11 14 65 25 120 11 55 30 143 41 195 11 52 23 109 26
125 3 17 13 67 23 113 17 75 17 85 1 84 -7 -1 -217 -14 -275 -17 -22 -1 -78
-5 -125 -9 -47 -4 -114 -9 -150 -11 -36 -3 -96 -7 -135 -10 -38 -2 -104 -7
-145 -10 -215 -14 -258 -17 -290 -20 -19 -2 -87 -6 -150 -10 -63 -4 -132 -8
-153 -10 -35 -4 -37 -3 -33 20 3 14 7 33 10 43 3 9 7 28 10 42 3 19 79 382
112 535 2 11 6 29 8 40 29 138 36 170 36 171 0 0 19 2 43 3 80 4 292 18 397
26 200 16 230 17 225 3 -3 -11 -71 -333 -89 -428 -3 -14 -9 -47 -14 -73 l-10
-49 112 7 c61 4 127 8 146 10 19 2 82 6 140 10 58 3 125 8 150 10 65 5 233 17
248 18 12 0 17 13 26 67 2 14 9 45 15 70 5 25 13 60 16 79 3 19 7 37 9 40 2 3
7 24 10 46 4 22 8 47 11 55 2 8 6 26 9 40 3 14 19 93 36 175 17 83 32 159 34
170 2 11 11 50 20 88 9 37 18 79 21 95 14 73 18 93 35 172 21 96 22 99 55 268
4 21 1 22 -41 20 -25 -2 -46 -4 -47 -5z m-1237 -2549 c0 -4 -21 -106 -34 -164
-17 -78 -125 -585 -132 -620 -3 -14 -10 -45 -15 -70 -14 -62 -18 -80 -25 -115
-5 -32 -35 -81 -81 -132 -27 -30 -32 -32 -128 -38 -55 -3 -120 -8 -145 -10
-25 -2 -88 -7 -140 -10 -52 -3 -119 -8 -148 -11 l-53 -4 5 27 c3 16 7 37 10
48 7 31 57 267 63 295 3 21 55 260 67 312 3 14 -3 16 -43 13 -108 -9 -382 -28
-431 -29 -19 -1 -34 4 -33 9 16 106 87 411 96 417 6 4 37 8 67 9 30 0 66 2 80
4 14 1 72 6 130 9 58 4 124 9 146 11 23 2 86 6 140 9 96 7 177 13 279 21 28 2
100 7 160 10 61 4 111 8 112 9 3 2 53 3 53 0z"/>
</g>
</svg>
